<svg xmlns="http://www.w3.org/2000/svg" xmlns:xlink="http://www.w3.org/1999/xlink" width="354" height="127" viewBox="10 10.132 354 127">
  <g transform="translate(-0.50001037,-2.368)">
    <defs>
      <path id="a" d="M9.5 10.5H389.5V139.5H9.5z"/>
    </defs>
    <clipPath id="b">
      <use xlink:href="#a" overflow="visible" width="380" height="129.736"/>
    </clipPath>
    <path clip-path="url(#b)" fill="#fc0" d="M10.5 12.5H364.5V139.5H10.5z"/>
  </g>
  <g transform="translate(-0.50001037,-2.368)">
    <defs>
      <path id="c" d="M9.5 10.5H389.5V139.5H9.5z"/>
    </defs>
    <clipPath id="d">
      <use xlink:href="#c" overflow="visible" width="380" height="129.736"/>
    </clipPath>
    <path clip-path="url(#d)" d="m 10.5,12.5 h 354 v 127 h -354 v -127 z m 176.988,121.768 c 95.437,0 172.821,-25.941 172.821,-57.918 0,-31.979 -77.385,-57.902 -172.821,-57.902 -95.433,0 -172.809,25.924 -172.809,57.902 0,31.975 77.376,57.918 172.809,57.918" fill="#039"/>
  </g>
  <g transform="translate(-0.50001037,-2.368)">
    <defs>
      <path id="e" d="M9.5 10.5H389.5V139.5H9.5z"/>
    </defs>
    <clipPath id="f">
      <use xlink:href="#e" overflow="visible" width="380" height="129.736"/>
    </clipPath>
    <path clip-path="url(#f)" d="m 146.5,95.857 c 0,0 0.612,-0.53 0.694,-0.858 0.229,-1.067 -0.154,-2.103 -0.154,-2.103 L 137.5,77.857 V 77.76 l 0.042,15.807 0.272,1.254 0.518,0.68 H 108.17 l 0.497,-0.68 0.26,-1.344 -0.012,-41.164 -0.263,-1.192 -0.493,-0.621 h 30.174 l -0.506,0.662 -0.26,1.317 -0.018,14.752 10.929,-14.3 c 0,0 0.226,-0.56 0.226,-1.367 0,-0.508 -0.497,-1.336 -0.497,-1.336 l 30.03,0.034 -13.067,18.582 15.748,25.166 1.179,0.904 1.341,0.586 H 146.5 v 0.357 z" fill="#039"/>
  </g>
  <g transform="translate(-0.50001037,-2.368)">
    <defs>
      <path id="g" d="M9.5 10.5H389.5V139.5H9.5z"/>
    </defs>
    <clipPath id="h">
      <use xlink:href="#g" overflow="visible" width="380" height="129.736"/>
    </clipPath>
    <path clip-path="url(#h)" d="m 91.426,93.688 0.267,1.406 0.49,0.844 -30.146,-0.081 0.355,-0.858 0.108,-1.433 0,-41.209 -0.122,-1.213 -0.353,-0.644 30.17,0 -0.502,0.662 -0.255,1.317 z" fill="#039"/>
  </g>
  <g transform="translate(-0.50001037,-2.368)">
    <defs>
      <path id="i" d="M9.5 10.5H389.5V139.5H9.5z"/>
    </defs>
    <clipPath id="j">
      <use xlink:href="#i" overflow="visible" width="380" height="129.736"/>
    </clipPath>
    <path clip-path="url(#j)" d="m 235.211,67.105 1.371,-0.25 0.84,-0.492 -0.024,12.721 -0.882,-0.516 -1.305,-0.257 -16.711,0.019 0,4.17 21.819,0 1.537,-0.306 0.756,-0.583 0.05,14.355 -52.857,-0.103 0.484,-0.858 0.211,-1.437 0,-41.211 -0.223,-1.431 -0.51,-0.87 52.682,0.099 0.041,13.81 -0.857,-0.364 -1.434,-0.101 -21.699,0 0,3.669 z" fill="#039"/>
  </g>
  <g transform="translate(-0.50001037,-2.368)">
    <defs>
      <path id="k" d="M9.5 10.5H389.5V139.5H9.5z"/>
    </defs>
    <clipPath id="l">
      <use xlink:href="#k" overflow="visible" width="380" height="129.736"/>
    </clipPath>
    <path clip-path="url(#l)" d="m 285.449,69.522 -3.547,7.978 h 7.105 l -3.558,-7.978 z M 267.298,52.421 c 0,0 0.224,-0.806 0.128,-1.448 -0.087,-0.628 -0.505,-0.868 -0.505,-0.868 l 40.885,0.012 c 0,0 -0.421,0.228 -0.509,0.871 -0.092,0.627 0.131,1.444 0.131,1.444 l 17.85,41.817 0.568,0.89 0.786,0.719 -32.288,0.056 c 0,0 0.495,-1.044 0.444,-1.479 -0.051,-0.463 -0.211,-1.06 -0.211,-1.06 L 292.48,87.5 h -14.054 l -2.298,5.874 c 0,0 -0.218,0.051 -0.218,0.503 0,0.88 0.529,1.623 0.529,1.623 h -26.037 c 0,0 0.896,-0.354 1.391,-1.437 0.404,-0.856 0.326,-0.806 0.326,-0.806 l 15.179,-40.836 z" fill="#039"/>
  </g>
</svg>
