<?xml version="1.0" encoding="UTF-8" standalone="no"?>
<!-- Created with Inkscape (http://www.inkscape.org/) -->

<svg
   xmlns:dc="http://purl.org/dc/elements/1.1/"
   xmlns:cc="http://creativecommons.org/ns#"
   xmlns:rdf="http://www.w3.org/1999/02/22-rdf-syntax-ns#"
   xmlns:svg="http://www.w3.org/2000/svg"
   xmlns="http://www.w3.org/2000/svg"
   xmlns:sodipodi="http://sodipodi.sourceforge.net/DTD/sodipodi-0.dtd"
   xmlns:inkscape="http://www.inkscape.org/namespaces/inkscape"
   version="1.1"
   id="svg2"
   xml:space="preserve"
   width="612.94824"
   height="682.28241"
   viewBox="0 0 612.94824 682.28241"
   sodipodi:docname="logo.svg"
   inkscape:version="0.92.2 (5c3e80d, 2017-08-06)"
   inkscape:export-filename="C:\Users\Administrator\Desktop\logo.png"
   inkscape:export-xdpi="96"
   inkscape:export-ydpi="96"><metadata
     id="metadata8"><rdf:RDF><cc:Work
         rdf:about=""><dc:format>image/svg+xml</dc:format><dc:type
           rdf:resource="http://purl.org/dc/dcmitype/StillImage" /><dc:title></dc:title></cc:Work></rdf:RDF></metadata><defs
     id="defs6"><clipPath
       clipPathUnits="userSpaceOnUse"
       id="clipPath40"><path
         d="M 0,1200 H 1200 V 0 H 0 Z"
         id="path38"
         inkscape:connector-curvature="0" /></clipPath></defs><sodipodi:namedview
     pagecolor="#ffffff"
     bordercolor="#666666"
     borderopacity="1"
     objecttolerance="10"
     gridtolerance="10"
     guidetolerance="10"
     inkscape:pageopacity="0"
     inkscape:pageshadow="2"
     inkscape:window-width="1366"
     inkscape:window-height="706"
     id="namedview4"
     showgrid="false"
     showguides="false"
     inkscape:zoom="0.2085965"
     inkscape:cx="-232.4199"
     inkscape:cy="317.1668"
     inkscape:window-x="-8"
     inkscape:window-y="-8"
     inkscape:window-maximized="1"
     inkscape:current-layer="g10" /><g
     id="g10"
     inkscape:groupmode="layer"
     inkscape:label="126"
     transform="matrix(1.3333333,0,0,-1.3333333,-507.90809,1184.2872)"><g
       id="g34"
       transform="translate(10.786375,-97.07737)"><g
         id="g36"
         clip-path="url(#clipPath40)"><g
           id="g94"
           transform="translate(956.9111,214.707)" /><g
           id="g98"
           transform="translate(600,894.0518)"><path
             d="m 0,0 v 91.241 c -10.216,0 -20.436,-2.237 -28.189,-6.713 L -201.67,-15.63 c -7.767,-4.482 -14.813,-12.22 -19.921,-21.079 l 79.044,-45.624 C -114.083,-33.129 -60.924,0 0,0"
             style="fill:#8bc53f;fill-opacity:1;fill-rule:nonzero;stroke:none"
             id="path100"
             inkscape:connector-curvature="0" /></g><g
           id="g102"
           transform="translate(742.5498,811.7236)"><path
             d="m 0,0 79.036,45.619 c -5.11,8.86 -12.159,16.597 -19.921,21.079 l -173.48,100.158 c -7.756,4.476 -17.967,6.713 -28.185,6.713 V 82.328 C -81.621,82.328 -28.465,49.199 0,0"
             style="fill:#b31e8d;fill-opacity:1;fill-rule:nonzero;stroke:none"
             id="path104"
             inkscape:connector-curvature="0" /></g><g
           id="g106"
           transform="translate(435.3887,729.4375)"><path
             d="m 0,0 c 0,29.984 8.056,58.069 22.064,82.281 l -79.044,45.624 c -5.1,-8.838 -8.264,-18.796 -8.264,-27.738 v -200.322 c 0,-8.945 3.164,-18.901 8.264,-27.736 l 79.04,45.619 C 8.053,-58.063 0,-29.983 0,0"
             style="fill:#ec1a3b;fill-opacity:1;fill-rule:nonzero;stroke:none"
             id="path108"
             inkscape:connector-curvature="0" /></g><g
           id="g110"
           transform="translate(457.4482,647.165)"><path
             d="m 0,0 -79.04,-45.619 c 5.108,-8.86 12.155,-16.6 19.921,-21.078 l 173.481,-100.174 c 7.754,-4.474 17.974,-6.713 28.19,-6.713 v 91.242 C 81.617,-82.342 28.457,-49.21 0,0"
             style="fill:#f9a51a;fill-opacity:1;fill-rule:nonzero;stroke:none"
             id="path112"
             inkscape:connector-curvature="0" /></g><g
           id="g114"
           transform="translate(600,564.8232)"><path
             d="m 0,0 v -91.242 c 10.218,0.005 20.429,2.239 28.185,6.713 l 173.48,100.163 c 7.762,4.482 14.816,12.219 19.929,21.089 L 142.557,82.337 C 114.099,33.132 60.938,0 0,0"
             style="fill:#009ada;fill-opacity:1;fill-rule:nonzero;stroke:none"
             id="path116"
             inkscape:connector-curvature="0" /></g><g
           id="g118"
           transform="translate(821.5859,857.3423)"><path
             d="m 0,0 -79.036,-45.619 c 14.008,-24.213 22.066,-52.301 22.066,-82.286 0,-29.983 -8.052,-58.063 -22.059,-82.277 l 79.037,-45.614 c 5.088,8.835 8.262,18.792 8.262,27.73 V -27.737 C 8.27,-18.795 5.096,-8.838 0,0"
             style="fill:#da2f5e;fill-opacity:1;fill-rule:nonzero;stroke:none"
             id="path120"
             inkscape:connector-curvature="0" /></g><g
           id="g122"
           transform="translate(679.2783,693.8081)"><path
             d="m 0,0 v -54.804 h -169.324 l 78.716,126.052 h -63.647 v 54.816 H 10.768 L -69.628,0 Z m -79.278,174.392 c -76.631,0 -138.762,-62.121 -138.762,-138.763 0,-76.635 62.131,-138.761 138.762,-138.761 76.64,0 138.764,62.126 138.764,138.761 0,76.642 -62.124,138.763 -138.764,138.763"
             style="fill:#454547;fill-opacity:1;fill-rule:nonzero;stroke:none"
             id="path124"
             inkscape:connector-curvature="0" /></g></g></g></g></svg>